<svg width="200" height="200" viewBox="0 0 200 200" fill="none" xmlns="http://www.w3.org/2000/svg">
<path d="M0 40C0 17.9086 17.9086 0 40 0H160C182.091 0 200 17.9086 200 40V160C200 182.091 182.091 200 160 200H40C17.9086 200 0 182.091 0 160V40Z" fill="url(#paint0_linear_2846_3053)"/>
<path d="M46.7543 111.516C50.7574 67.9265 86.9705 60.7358 104.577 62.5891C88.1185 59.0308 74.7389 64.0717 70.1064 67.0369C38.0817 80.8253 34.8941 114.296 37.3033 129.307C47.5334 171.562 84.1914 176.936 101.242 174.342C146.61 165.446 152.021 125.786 149.056 107.068C148.611 124.414 144.794 135.423 142.94 138.759C130.486 164.112 102.538 166.373 90.1211 164.334C51.4245 156.328 45.0863 125.786 46.7543 111.516Z" fill="white"/>
<path d="M107.842 53.0613V43.7364C108.287 41.5125 117.479 42.683 121.741 43.6096L121.185 58.0652C119.406 58.0652 111.548 54.7293 107.842 53.0613Z" fill="white"/>
<path d="M104.643 55.8764C21.8014 53.6525 31.2535 128.711 31.2535 128.711C21.0239 57.1007 75.9178 41.4209 104.643 42.5323V55.8764Z" fill="white"/>
<path d="M129.662 110.266L102.84 162.793C102.523 163.413 101.886 163.803 101.19 163.803C100.489 163.803 99.8477 163.406 99.534 162.779L73.2773 110.266V72.676C73.733 68.5753 77.6438 67.9298 79.5423 68.1197V104.001C82.2761 102.178 87.5159 101.343 89.7941 101.153V59.5765C90.2497 54.5646 94.9199 54.4507 97.1981 55.0202V100.014L106.311 101.153L107.45 44.7685C106.994 41.579 111.437 39.6426 113.715 39.073V101.153C120.094 102.52 122.827 103.621 123.397 104.001V22.5563C123.397 19.8225 127.574 18.3797 129.662 18V110.266Z" fill="white"/>
<path d="M88.7539 127.929L81.6097 109.37C81.6097 109.37 91.4361 106.393 101.108 106.83C113.628 107.395 122.575 111.211 122.575 111.211L112.65 129.007C112.65 129.007 105.924 127.08 101.349 126.775C96.3418 126.441 88.7539 127.929 88.7539 127.929Z" fill="url(#paint1_linear_2846_3053)"/>
<path d="M129.662 49.2031V66.4386C150.123 83.3406 155.608 101.651 155.794 108.693C160.797 169.852 106.311 183.195 83.5156 180.415C144.007 191.09 167.469 145.388 169.693 116.477C168.996 78.603 148.01 58.0989 129.662 49.2031Z" fill="white"/>
<defs>
<linearGradient id="paint0_linear_2846_3053" x1="49.8414" y1="6" x2="160.494" y2="184.883" gradientUnits="userSpaceOnUse">
<stop stop-color="#3165E5"/>
<stop offset="1" stop-color="#9F7AF9"/>
</linearGradient>
<linearGradient id="paint1_linear_2846_3053" x1="86.2753" y1="110.184" x2="111.465" y2="129.478" gradientUnits="userSpaceOnUse">
<stop stop-color="#4167E7"/>
<stop offset="1" stop-color="#7B73F2"/>
</linearGradient>
</defs>
</svg>
