<svg width="576" height="200" viewBox="0 0 576 200" fill="none" xmlns="http://www.w3.org/2000/svg">
<path d="M0 50C0 22.3858 22.3858 0 50 0H158.662C186.276 0 208.662 22.3858 208.662 50V150C208.662 177.614 186.276 200 158.662 200H50C22.3858 200 0 177.614 0 150V50Z" fill="url(#paint0_linear_2907_2757)"/>
<path d="M50.7543 111.516C54.7574 67.9265 90.9705 60.7358 108.577 62.5891C92.1185 59.0308 78.7389 64.0717 74.1064 67.0369C42.0817 80.8253 38.8941 114.296 41.3033 129.307C51.5334 171.562 88.1914 176.936 105.242 174.342C150.61 165.446 156.021 125.786 153.056 107.068C152.611 124.414 148.794 135.423 146.94 138.759C134.486 164.112 106.538 166.373 94.1211 164.334C55.4245 156.328 49.0863 125.786 50.7543 111.516Z" fill="white"/>
<path d="M111.842 53.0613V43.7364C112.287 41.5125 121.479 42.683 125.741 43.6096L125.185 58.0652C123.406 58.0652 115.548 54.7293 111.842 53.0613Z" fill="white"/>
<path d="M108.643 55.8764C25.8014 53.6525 35.2535 128.711 35.2535 128.711C25.0239 57.1007 79.9178 41.4209 108.643 42.5323V55.8764Z" fill="white"/>
<path d="M133.662 110.266L106.84 162.793C106.523 163.413 105.886 163.803 105.19 163.803C104.489 163.803 103.848 163.406 103.534 162.779L77.2773 110.266V72.676C77.733 68.5753 81.6438 67.9298 83.5423 68.1197V104.001C86.2761 102.178 91.5159 101.343 93.7941 101.153V59.5765C94.2497 54.5646 98.9199 54.4507 101.198 55.0202V100.014L110.311 101.153L111.45 44.7685C110.994 41.579 115.437 39.6426 117.715 39.073V101.153C124.094 102.52 126.827 103.621 127.397 104.001V22.5563C127.397 19.8225 131.574 18.3797 133.662 18V110.266Z" fill="white"/>
<path d="M92.7539 127.929L85.6097 109.37C85.6097 109.37 95.4361 106.393 105.108 106.83C117.628 107.395 126.575 111.211 126.575 111.211L116.65 129.007C116.65 129.007 109.924 127.08 105.349 126.775C100.342 126.441 92.7539 127.929 92.7539 127.929Z" fill="url(#paint1_linear_2907_2757)"/>
<path d="M133.662 49.2031V66.4386C154.123 83.3406 159.608 101.651 159.794 108.693C164.797 169.852 110.311 183.195 87.5156 180.415C148.007 191.09 171.469 145.388 173.693 116.477C172.996 78.603 152.01 58.0989 133.662 49.2031Z" fill="white"/>
<path d="M277.453 32.7534C289.093 32.7534 298.693 34.1934 306.253 37.0734C313.813 39.8334 319.453 44.0934 323.173 49.8534C326.893 55.4934 328.753 62.6334 328.753 71.2734C328.753 77.1534 327.613 82.3134 325.333 86.7534C323.173 91.0734 320.233 94.7934 316.513 97.9134C312.913 100.913 309.013 103.373 304.813 105.293L342.613 161.273H312.373L281.773 111.953H267.193V161.273H240.013V32.7534H277.453ZM275.473 55.0734H267.193V89.8134H276.013C282.013 89.8134 286.873 89.1534 290.593 87.8334C294.313 86.5134 297.013 84.5334 298.693 81.8934C300.373 79.1334 301.213 75.8334 301.213 71.9934C301.213 67.9134 300.253 64.6734 298.333 62.2734C296.533 59.7534 293.713 57.9534 289.873 56.8734C286.153 55.6734 281.353 55.0734 275.473 55.0734ZM408.341 161.273H381.161V55.4334H346.241V32.7534H443.261V55.4334H408.341V161.273ZM537.059 161.273H463.079V32.7534H537.059V55.0734H490.259V83.3334H533.819V105.653H490.259V138.773H537.059V161.273Z" fill="url(#paint2_linear_2907_2757)"/>
<defs>
<linearGradient id="paint0_linear_2907_2757" x1="52" y1="6" x2="160.5" y2="189" gradientUnits="userSpaceOnUse">
<stop stop-color="#165BF7"/>
<stop offset="1" stop-color="#1941C3"/>
</linearGradient>
<linearGradient id="paint1_linear_2907_2757" x1="90.2753" y1="110.184" x2="115.465" y2="129.478" gradientUnits="userSpaceOnUse">
<stop stop-color="#174EDF"/>
<stop offset="1" stop-color="#1849D2"/>
</linearGradient>
<linearGradient id="paint2_linear_2907_2757" x1="237.5" y1="59" x2="515.5" y2="133" gradientUnits="userSpaceOnUse">
<stop stop-color="#165CF9"/>
<stop offset="1" stop-color="#1947D0"/>
</linearGradient>
</defs>
</svg>
